<?xml version="1.0" encoding="UTF-8"?>
<svg id="Layer_2" xmlns="http://www.w3.org/2000/svg" viewBox="0 0 283.46 98.75">
  <defs>
    <style>
      .cls-1 {
        fill: silver;
      }
    </style>
  </defs>
  <g id="Layer_1-2" data-name="Layer_1">
    <path id="equi" class="cls-1" d="M53.19,0l-1.89,17.95h-18.17l-9,80.79h-15.84L17.29,17.95H0L2,0h51.19ZM88.07,98.75l4.72-42.32h-20.09l-4.72,42.32h-15.84L63.14,0h15.84l-4.25,38.19h20.09L99.07,0h15.84l-11,98.75h-15.84ZM166.48,0l-1.75,16.67h-25.31l-2.64,23.65h20.57l-1.83,16.39h-20.57l-2.81,25.22h25.21l-1.87,16.81h-41.05L125.43,0h41.05ZM223.66,12.9c4.35,8.6,5.65,20.74,3.9,36.4-1.14,10.23-3.34,19.06-6.58,26.49-3.24,7.43-7.36,13.11-12.33,17.05-4.98,3.94-10.59,5.91-16.84,5.91s-11.41-1.95-15.48-5.84c-4.07-3.89-6.9-9.53-8.49-16.91-1.59-7.38-1.8-16.28-.64-26.69,1.13-10.14,3.32-18.93,6.57-26.35,3.24-7.42,7.34-13.11,12.29-17.05,4.95-3.94,10.54-5.91,16.79-5.91,9.53,0,16.47,4.3,20.82,12.9ZM189.95,24.11c-2.8,5.21-4.85,13.61-6.15,25.2-1.29,11.59-1.11,20.01.56,25.26,1.67,5.25,4.75,7.88,9.26,7.88s8.35-2.6,11.16-7.81c2.8-5.21,4.86-13.65,6.16-25.33,1.31-11.68,1.12-20.1-.56-25.26-1.68-5.16-4.8-7.74-9.37-7.74s-8.26,2.6-11.06,7.81ZM274.39,2.99c3.48,1.99,6.5,5.03,9.08,9.1l-8.69,12.09c-3.99-5.25-8.58-7.88-13.8-7.88-2.77,0-5.05.79-6.83,2.38-1.79,1.59-2.85,3.87-3.18,6.86-.23,2.08-.07,3.78.49,5.09.56,1.31,1.68,2.56,3.35,3.74,1.67,1.18,4.22,2.58,7.64,4.21,6.48,3.08,11.08,6.86,13.8,11.34,2.72,4.48,3.62,10.85,2.7,19.08-.66,5.89-2.3,11.07-4.92,15.55-2.63,4.48-6.07,7.97-10.34,10.46-4.27,2.49-9.14,3.74-14.62,3.74s-10.18-1.22-14.12-3.67c-3.95-2.44-7.2-5.7-9.77-9.78l9.4-12.36c2.23,3.08,4.63,5.39,7.19,6.93,2.56,1.54,5.46,2.31,8.68,2.31s5.99-1.02,8.12-3.06c2.13-2.04,3.39-4.87,3.8-8.49.26-2.35.13-4.32-.4-5.91-.53-1.58-1.6-3.01-3.19-4.28-1.6-1.27-3.96-2.62-7.08-4.07-7.05-3.17-11.88-7.06-14.49-11.68-2.61-4.62-3.52-10.46-2.73-17.52.61-5.43,2.17-10.21,4.69-14.33,2.52-4.12,5.74-7.29,9.66-9.51,3.92-2.22,8.19-3.33,12.83-3.33,5.02,0,9.27,1,12.75,2.99Z"/>
  </g>
</svg>